<svg xmlns="http://www.w3.org/2000/svg" width="406" height="202" viewBox="0 0 406 202">
<g>
<path d="M 0.00,199.00 C0.00,198.34 68.33,198.00 203.00,198.00 C337.67,198.00 406.00,198.34 406.00,199.00 C406.00,199.66 337.67,200.00 203.00,200.00 C68.33,200.00 0.00,199.66 0.00,199.00 M 280.15,185.75 C279.52,185.12 279.00,183.88 279.00,183.00 C279.00,182.12 278.62,180.97 278.16,180.45 C277.70,179.93 276.78,176.80 276.12,173.50 C275.46,170.20 274.49,165.58 273.96,163.24 C273.43,160.89 273.00,157.47 273.00,155.64 C273.00,150.37 270.66,148.99 263.79,150.19 C259.91,150.87 257.93,151.72 257.61,152.84 C257.35,153.75 256.37,157.88 255.42,162.00 C254.47,166.12 253.09,170.72 252.35,172.20 C251.61,173.69 251.00,176.02 251.00,177.39 C251.00,180.57 249.24,181.67 247.28,179.71 C245.97,178.40 245.93,177.44 247.01,172.84 C247.70,169.90 248.59,167.05 248.99,166.50 C249.40,165.95 250.01,162.27 250.36,158.32 C250.94,151.87 250.81,151.07 249.14,150.54 C248.11,150.22 240.44,150.20 232.10,150.51 C218.89,150.99 216.54,150.84 214.01,149.35 C211.58,147.91 210.67,147.83 208.43,148.85 C205.60,150.14 195.00,149.51 191.81,147.87 C190.79,147.34 189.88,147.39 189.50,148.00 C189.16,148.55 187.59,149.00 186.00,149.00 C184.41,149.00 182.88,149.39 182.59,149.86 C182.30,150.33 172.11,150.61 159.94,150.48 C136.10,150.24 134.29,149.84 136.06,145.28 C136.91,143.06 136.99,143.06 154.21,143.68 C175.22,144.43 189.61,144.36 191.03,143.48 C191.61,143.12 192.70,143.33 193.44,143.95 C194.41,144.75 196.95,144.81 202.24,144.16 C206.32,143.65 219.55,143.47 231.63,143.76 L 253.60,144.28 L 254.92,139.89 C255.64,137.48 256.38,133.93 256.55,132.00 C256.73,130.07 258.08,124.45 259.55,119.50 C261.02,114.55 262.52,108.25 262.89,105.50 C263.26,102.75 263.91,99.94 264.34,99.25 C265.27,97.76 267.64,97.61 268.49,98.99 C270.60,102.39 275.00,127.04 275.00,135.42 C275.00,142.79 274.51,142.66 305.20,143.48 C334.23,144.26 348.73,144.23 361.24,143.37 C368.97,142.84 368.97,142.84 370.22,145.67 C370.91,147.23 372.16,149.03 372.99,149.67 C374.91,151.16 374.38,151.58 369.70,152.30 C366.27,152.83 365.81,152.64 364.89,150.21 L 363.87,147.52 L 362.09,149.88 C360.79,151.60 359.24,152.28 356.40,152.37 C352.74,152.49 352.51,152.33 352.69,149.75 C352.91,146.54 352.73,146.48 349.49,148.60 C347.64,149.81 343.88,150.26 333.78,150.48 C326.48,150.64 318.48,151.05 316.00,151.41 C313.52,151.76 311.05,152.03 310.50,152.02 C309.95,152.00 302.98,151.61 295.00,151.15 C287.02,150.69 279.92,150.52 279.21,150.78 C277.25,151.49 279.59,165.33 282.20,168.45 C282.64,168.97 283.00,170.63 283.00,172.14 C283.00,173.65 283.45,175.16 284.00,175.50 C284.55,175.84 285.00,178.10 285.00,180.52 C285.00,185.33 282.46,188.06 280.15,185.75 M 270.84,141.57 C271.04,140.56 270.71,138.78 270.12,137.62 C269.53,136.45 268.92,133.47 268.77,131.00 C268.55,127.26 268.16,126.50 266.50,126.50 C264.93,126.50 264.44,127.25 264.24,130.00 C264.10,131.93 263.48,135.15 262.86,137.18 C261.24,142.44 262.13,143.94 266.69,143.65 C269.47,143.47 270.59,142.91 270.84,141.57 M 85.45,178.23 C84.87,177.83 82.90,175.25 81.06,172.50 C79.23,169.75 76.93,166.94 75.94,166.25 C74.96,165.56 73.85,163.54 73.46,161.75 C73.08,159.96 72.44,158.05 72.03,157.50 C70.93,156.00 69.09,147.93 69.56,146.63 C69.79,146.01 70.41,141.55 70.94,136.73 C71.48,131.91 72.61,126.97 73.46,125.76 C74.31,124.55 75.00,122.81 75.00,121.89 C75.00,118.16 87.10,103.68 90.40,103.46 C91.00,103.42 92.29,103.07 93.25,102.69 C94.21,102.31 95.63,101.81 96.40,101.57 C98.24,101.00 99.42,87.23 98.78,73.91 L 98.31,64.05 L 101.82,62.90 C105.61,61.64 116.44,62.21 121.50,63.93 C123.15,64.49 125.73,65.19 127.22,65.48 C130.67,66.17 133.04,68.72 136.83,75.84 C141.00,83.68 143.06,93.43 142.87,104.43 C142.77,110.05 143.19,114.48 143.94,115.88 C144.61,117.14 145.01,118.27 144.83,118.39 C139.72,121.74 137.59,122.75 133.00,124.02 L 127.50,125.53 L 127.50,130.18 C127.50,135.53 126.93,136.43 124.13,135.54 C122.54,135.04 122.04,133.89 121.80,130.21 C121.51,125.63 121.41,125.51 117.50,124.66 C115.30,124.19 110.14,123.73 106.04,123.65 L 98.58,123.50 L 98.54,117.02 C98.51,111.56 98.21,110.49 96.67,110.18 C93.58,109.57 90.17,110.90 89.51,112.97 C89.17,114.05 87.57,116.18 85.97,117.69 C84.37,119.20 82.55,121.80 81.92,123.47 C80.84,126.33 78.50,131.58 75.17,138.60 C73.86,141.37 73.88,142.06 75.35,145.01 C76.26,146.82 77.00,149.14 77.00,150.17 C77.00,151.19 77.42,152.81 77.94,153.76 C78.46,154.72 79.16,156.82 79.50,158.43 C79.85,160.05 81.79,163.01 83.81,165.02 C87.02,168.20 88.48,168.83 95.01,169.87 C103.92,171.29 107.84,170.34 112.64,165.60 C116.33,161.96 120.00,155.72 120.00,153.08 C120.00,151.60 118.96,151.10 114.70,150.57 C111.79,150.20 108.71,150.17 107.86,150.50 C107.01,150.82 105.74,150.40 105.04,149.55 C104.33,148.70 103.33,148.00 102.81,148.00 C102.28,148.00 101.13,147.28 100.25,146.39 C98.77,144.91 98.84,144.63 101.07,142.91 C103.74,140.86 107.05,140.45 108.59,141.99 C109.14,142.54 113.06,143.04 117.29,143.10 C123.09,143.19 125.03,143.56 125.12,144.61 C125.19,145.37 125.33,146.34 125.43,146.75 C125.53,147.16 125.94,148.87 126.34,150.55 C127.14,153.89 125.19,159.76 122.56,161.95 C121.70,162.66 121.00,164.34 121.00,165.69 C121.00,169.22 119.23,172.00 116.97,172.00 C115.90,172.00 114.45,172.90 113.77,174.00 C113.08,175.10 111.55,176.00 110.37,176.00 C109.18,176.00 107.95,176.68 107.64,177.50 C107.18,178.70 105.01,179.00 96.78,178.98 C91.13,178.98 86.03,178.64 85.45,178.23 M 117.89,116.40 C119.49,114.97 110.41,109.58 107.38,110.16 C105.39,110.55 103.52,116.08 105.06,117.04 C106.05,117.65 117.12,117.09 117.89,116.40 M 137.23,108.75 C137.64,92.32 137.49,90.57 135.22,85.74 C134.00,83.15 133.00,80.66 133.00,80.22 C133.00,78.83 123.62,70.42 120.70,69.18 C117.21,67.71 110.42,68.65 106.93,71.09 C104.43,72.83 104.36,73.16 104.68,82.19 C104.86,87.31 105.35,93.73 105.76,96.46 C106.48,101.19 106.70,101.47 110.32,102.33 C114.48,103.31 122.36,109.86 124.60,114.19 C125.97,116.84 126.39,116.98 135.25,117.83 C136.79,117.98 137.03,116.88 137.23,108.75 M 126.00,172.00 C126.00,171.45 126.45,171.00 127.00,171.00 C127.55,171.00 128.00,171.45 128.00,172.00 C128.00,172.55 127.55,173.00 127.00,173.00 C126.45,173.00 126.00,172.55 126.00,172.00 M 166.50,138.10 C161.03,137.18 160.61,136.83 156.16,129.40 L 152.25,122.88 L 153.75,117.69 C154.58,114.84 156.06,111.73 157.05,110.78 C158.04,109.84 159.10,108.26 159.41,107.28 C159.94,105.60 162.79,103.96 167.62,102.56 C171.00,101.58 174.87,103.65 180.63,109.50 C186.33,115.29 186.60,115.99 184.95,120.72 C184.04,123.33 183.27,123.83 179.31,124.37 C176.78,124.72 172.57,125.00 169.94,125.00 C164.24,125.00 162.00,125.73 162.00,127.58 C162.00,130.09 166.42,131.89 173.50,132.26 C179.26,132.56 180.56,132.94 180.84,134.42 C181.03,135.41 180.81,136.56 180.34,136.99 C179.03,138.19 170.94,138.84 166.50,138.10 M 173.75,119.37 C174.99,119.04 176.00,118.22 176.00,117.56 C176.00,115.95 172.04,112.39 169.36,111.58 C166.56,110.74 160.31,113.72 159.66,116.21 C159.31,117.52 159.84,118.40 161.33,119.00 C163.88,120.03 170.55,120.23 173.75,119.37 M 194.64,137.51 C194.33,136.70 194.52,127.13 195.08,116.26 C195.63,105.39 196.18,89.79 196.29,81.58 C196.44,70.69 196.84,66.55 197.75,66.25 C198.44,66.02 199.29,66.66 199.65,67.67 C200.02,68.68 200.74,70.06 201.28,70.75 C202.58,72.44 203.05,85.85 201.83,86.60 C201.29,86.94 201.14,88.87 201.49,90.96 C202.52,97.01 202.32,114.08 201.22,115.18 C200.55,115.85 200.54,117.38 201.21,119.79 C202.56,124.68 201.37,132.58 198.76,136.11 C196.35,139.36 195.47,139.67 194.64,137.51 M 212.46,135.67 C210.47,132.30 210.31,128.38 211.53,112.72 C212.18,104.32 212.30,103.96 214.35,104.60 C216.95,105.41 217.96,106.81 217.98,109.60 C217.99,110.76 218.48,113.09 219.08,114.79 C219.99,117.42 219.83,118.31 217.97,120.83 C215.86,123.68 215.84,123.96 217.33,129.07 C218.35,132.52 218.57,134.94 217.97,136.06 C216.35,139.09 214.40,138.95 212.46,135.67 M 226.68,136.20 C224.96,134.30 224.93,135.60 227.63,92.50 C227.91,88.10 228.10,81.67 228.05,78.21 C227.97,71.08 229.17,68.00 232.04,68.00 C233.91,68.00 234.00,68.76 234.00,84.39 C234.00,102.72 233.41,101.41 242.18,102.50 C247.22,103.13 247.90,103.53 250.34,107.30 C252.39,110.47 253.00,112.64 253.00,116.86 C253.00,121.71 252.55,122.90 248.94,127.57 C245.65,131.84 243.67,133.32 238.43,135.42 C230.79,138.48 228.86,138.60 226.68,136.20 M 240.80,126.20 C243.20,124.64 246.00,119.09 246.00,115.88 C246.00,113.72 238.47,107.88 236.61,108.60 C234.44,109.43 232.14,116.27 232.13,121.94 C232.12,124.93 232.34,127.74 232.62,128.19 C233.26,129.23 237.82,128.12 240.80,126.20 M 213.48,96.57 C211.18,94.27 210.90,93.37 211.49,90.19 C212.33,85.70 212.36,85.66 214.84,86.45 C216.33,86.92 217.00,88.33 217.52,92.13 C218.42,98.70 217.08,100.17 213.48,96.57 Z" fill="rgba(0,0,0,1)"/>
</g>
</svg>