<?xml version="1.0" standalone="no"?>
<!DOCTYPE svg PUBLIC "-//W3C//DTD SVG 20010904//EN"
 "http://www.w3.org/TR/2001/REC-SVG-20010904/DTD/svg10.dtd">
<svg version="1.0" xmlns="http://www.w3.org/2000/svg"
 width="165.000000pt" height="165.000000pt" viewBox="0 0 165.000000 165.000000"
 preserveAspectRatio="xMidYMid meet">

<g transform="translate(0.000000,165.000000) scale(0.100000,-0.100000)"
fill="#000000" stroke="none">
<path d="M237 1524 c-3 -17 0 -32 6 -36 7 -4 78 -5 159 -1 124 5 154 3 190
-10 76 -30 98 -106 57 -197 -25 -56 -44 -77 -91 -101 -77 -39 -150 -17 -208
63 -29 40 -30 43 -13 56 17 13 17 14 -3 8 -18 -5 -27 2 -54 44 -59 92 -106
111 -171 67 -47 -31 -61 -86 -32 -125 29 -39 70 -48 143 -29 l61 15 17 -25
c73 -106 126 -135 208 -114 60 15 96 41 133 94 76 113 70 231 -16 273 -33 17
-58 19 -200 16 -142 -2 -163 -1 -171 14 -8 14 -10 12 -15 -12z m-17 -156 c38
-41 57 -74 48 -84 -10 -9 -99 -16 -132 -10 -26 5 -40 15 -51 36 -19 37 -19 42
6 74 33 42 79 36 129 -16z"/>
<path d="M984 1517 c-12 -7 -19 -17 -17 -23 2 -6 -23 -79 -57 -162 -77 -194
-78 -231 -5 -182 l30 21 -29 -7 c-28 -7 -29 -6 -22 22 4 16 32 87 62 158 49
115 73 187 63 186 -2 -1 -13 -6 -25 -13z"/>
<path d="M1170 1510 c-23 -13 -29 -19 -17 -20 14 0 17 -5 12 -22 -7 -24 -90
-232 -119 -301 l-17 -39 32 7 c37 8 99 33 99 40 0 2 -12 0 -26 -5 -14 -6 -34
-10 -45 -10 -19 0 -18 2 5 48 45 88 136 160 152 119 6 -17 -19 -73 -53 -117
-24 -31 -21 -30 21 10 71 67 98 132 60 147 -16 6 -77 -21 -121 -53 -19 -14
-17 -4 18 86 48 121 48 136 -1 110z"/>
<path d="M1065 1439 c-4 -6 -5 -13 -2 -16 7 -7 27 6 27 18 0 12 -17 12 -25 -2z"/>
<path d="M503 1378 c-51 -23 -91 -43 -89 -45 2 -2 36 10 75 28 39 18 74 29 77
26 3 -3 -4 -35 -15 -72 -12 -37 -21 -69 -21 -71 0 -5 53 7 60 13 2 2 -2 8 -10
13 -13 8 -13 15 2 57 26 77 30 93 21 93 -4 0 -50 -19 -100 -42z"/>
<path d="M805 1356 c-61 -28 -135 -128 -135 -184 0 -29 25 -45 57 -37 30 7
113 85 113 106 0 7 -11 -2 -24 -20 -32 -43 -56 -60 -84 -61 -32 0 -37 23 -18
75 26 67 102 125 129 98 4 -3 -1 -15 -10 -26 -17 -19 -17 -20 4 -8 26 13 47
47 38 61 -8 14 -34 12 -70 -4z"/>
<path d="M1015 1355 c-19 -9 -24 -14 -12 -15 23 0 22 -3 -18 -95 -45 -103 -45
-117 -5 -102 17 7 26 13 20 15 -16 6 -12 25 18 94 32 71 46 118 35 117 -5 0
-21 -7 -38 -14z"/>
<path d="M1475 1361 c-47 -12 -97 -40 -138 -80 -47 -44 -67 -80 -67 -122 0
-29 2 -31 28 -24 15 3 48 24 75 46 26 22 47 38 47 36 0 -3 -7 -21 -15 -40 -20
-48 -20 -48 17 -35 18 6 27 13 21 15 -9 3 -8 15 2 44 12 33 12 39 0 39 -12 0
-12 4 1 28 15 30 18 52 6 52 -4 0 -14 -16 -21 -36 -15 -42 -91 -124 -114 -124
-12 0 -17 8 -17 25 0 77 98 155 195 155 33 0 45 4 45 15 0 16 -17 17 -65 6z"/>
<path d="M370 1320 c-8 -5 -10 -10 -5 -10 6 0 17 5 25 10 8 5 11 10 5 10 -5 0
-17 -5 -25 -10z"/>
<path d="M758 1273 c7 -3 16 -2 19 1 4 3 -2 6 -13 5 -11 0 -14 -3 -6 -6z"/>
<path d="M882 982 c-11 -9 -77 -90 -146 -180 -86 -112 -123 -168 -119 -180 9
-27 73 -90 105 -103 26 -10 34 -8 82 22 29 19 110 70 179 114 l127 80 0 42 c0
39 -4 45 -91 125 -110 101 -112 102 -137 80z"/>
<path d="M1285 819 c-22 -14 -25 -19 -12 -19 21 0 21 0 -23 -121 -24 -68 -26
-76 -10 -72 10 3 22 22 30 46 6 23 19 53 27 67 9 13 18 38 20 54 2 17 6 39 9
48 7 22 -3 22 -41 -3z"/>
<path d="M1362 810 c-23 -17 -42 -33 -42 -36 0 -3 12 3 28 14 15 11 36 21 46
23 20 4 35 29 18 29 -5 0 -28 -14 -50 -30z"/>
<path d="M453 540 c-85 -35 -135 -65 -184 -113 -49 -47 -66 -88 -83 -195 -17
-105 -34 -146 -78 -191 -17 -17 -28 -34 -25 -37 13 -14 306 16 385 39 171 50
252 153 252 323 l0 62 -42 25 c-44 26 -118 94 -118 109 0 15 -34 8 -107 -22z"/>
<path d="M1342 266 c-6 -14 -21 -26 -34 -29 -22 -4 -22 -4 -1 -6 21 -1 21 -3
-17 -88 -21 -49 -42 -101 -46 -117 -7 -29 -6 -29 27 -22 19 3 40 13 47 20 12
11 10 13 -12 9 -36 -7 -34 7 14 111 32 69 44 86 62 87 19 1 19 2 5 6 -14 4
-17 11 -13 29 8 32 -17 32 -32 0z"/>
</g>
</svg>
